<svg width="36" height="27" viewBox="0 0 36 27" fill="none" xmlns="http://www.w3.org/2000/svg">
<path d="M35.6904 13.1246L22.1578 0.76873C21.8909 0.525013 21.574 0.331685 21.2252 0.199786C20.8765 0.0678873 20.5027 2.56798e-09 20.1252 0C19.7477 -2.56798e-09 19.3739 0.0678873 19.0251 0.199786C18.6764 0.331685 18.3595 0.525013 18.0926 0.76873C17.8256 1.01245 17.6139 1.30178 17.4694 1.62021C17.325 1.93864 17.2506 2.27994 17.2506 2.6246C17.2506 2.96927 17.325 3.31056 17.4694 3.629C17.6139 3.94743 17.8256 4.23676 18.0926 4.48048L24.6849 10.4996L2.87518 10.4996C2.11269 10.4996 1.38142 10.7762 0.842251 11.2684C0.303082 11.7607 0.000183105 12.4284 0.000183105 13.1246C0.000183105 13.8208 0.303082 14.4885 0.842251 14.9808C1.38142 15.473 2.11269 15.7496 2.87518 15.7496L24.6849 15.7496L18.0926 21.7687C17.8246 22.0119 17.612 22.3011 17.467 22.6196C17.3219 22.9381 17.2472 23.2797 17.2472 23.6246C17.2472 23.9696 17.3219 24.3111 17.467 24.6296C17.612 24.9481 17.8246 25.2373 18.0926 25.4805C18.6317 25.9726 19.3628 26.249 20.1252 26.249C20.8875 26.249 21.6187 25.9726 22.1578 25.4805L35.6904 13.1246Z" fill="black"/>
</svg>
