<svg width="19" height="15" viewBox="0 0 19 15" fill="none" xmlns="http://www.w3.org/2000/svg">
<path d="M19 7.50005L11.7958 0.43929C11.6537 0.300018 11.485 0.189541 11.2993 0.114168C11.1137 0.0387941 10.9147 1.46747e-09 10.7137 0C10.5127 -1.46747e-09 10.3138 0.0387941 10.1281 0.114168C9.94243 0.189541 9.77373 0.300018 9.63163 0.43929C9.48952 0.578562 9.3768 0.743902 9.2999 0.925869C9.22299 1.10784 9.18341 1.30287 9.18341 1.49983C9.18341 1.69679 9.22299 1.89182 9.2999 2.07379C9.3768 2.25576 9.48952 2.4211 9.63163 2.56037L13.1411 5.99999L1.53053 5.99999C1.12461 5.99999 0.73531 6.15803 0.44828 6.43935C0.16125 6.72066 0 7.10221 0 7.50005C0 7.89789 0.16125 8.27943 0.44828 8.56075C0.73531 8.84206 1.12461 9.0001 1.53053 9.0001L13.1411 9.0001L9.63163 12.4397C9.489 12.5787 9.37582 12.744 9.29859 12.926C9.22136 13.108 9.1816 13.3031 9.1816 13.5003C9.1816 13.6974 9.22136 13.8926 9.29859 14.0746C9.37582 14.2566 9.489 14.4218 9.63163 14.5608C9.91864 14.842 10.3079 15 10.7137 15C11.1196 15 11.5088 14.842 11.7958 14.5608L19 7.50005Z" fill="#FFFAE7"/>
</svg>
