<svg width="36" height="35" viewBox="0 0 36 35" fill="none" xmlns="http://www.w3.org/2000/svg">
<path d="M20.7 35C29.3598 33.7259 36 26.4207 36 17.5986C36 7.87887 27.9414 0 18 0C8.0586 0 0 7.87887 0 17.5986C0 26.4207 6.6402 33.7276 15.3 35V22.8781H12.6C11.8839 22.8781 11.1972 22.6 10.6908 22.1049C10.1845 21.6099 9.9 20.9384 9.9 20.2383C9.9 19.5382 10.1845 18.8668 10.6908 18.3717C11.1972 17.8767 11.8839 17.5986 12.6 17.5986H15.3V14.0788C15.3 12.4452 15.9637 10.8786 17.1452 9.72342C18.3267 8.56829 19.9291 7.91935 21.6 7.91935H22.5C23.2161 7.91935 23.9028 8.19747 24.4092 8.69252C24.9155 9.18758 25.2 9.85902 25.2 10.5591C25.2 11.2592 24.9155 11.9307 24.4092 12.4257C23.9028 12.9208 23.2161 13.1989 22.5 13.1989H21.6C21.3613 13.1989 21.1324 13.2916 20.9636 13.4566C20.7948 13.6217 20.7 13.8455 20.7 14.0788V17.5986H23.4C24.1161 17.5986 24.8028 17.8767 25.3092 18.3717C25.8155 18.8668 26.1 19.5382 26.1 20.2383C26.1 20.9384 25.8155 21.6099 25.3092 22.1049C24.8028 22.6 24.1161 22.8781 23.4 22.8781H20.7V35Z" fill="black"/>
</svg>
