<svg width="36" height="37" viewBox="0 0 36 37" fill="none" xmlns="http://www.w3.org/2000/svg">
<path d="M23.625 18.5C23.625 20.0333 23.0324 21.5038 21.9775 22.588C20.9226 23.6722 19.4918 24.2812 18 24.2812C16.5082 24.2812 15.0774 23.6722 14.0225 22.588C12.9676 21.5038 12.375 20.0333 12.375 18.5C12.3762 18.1698 12.4069 17.8486 12.4669 17.5365H10.5V25.239C10.5 25.7747 10.9219 26.2083 11.4431 26.2083H24.5588C24.8086 26.2078 25.048 26.1055 25.2244 25.9237C25.4009 25.742 25.5 25.4958 25.5 25.239V17.5365H23.5331C23.5931 17.8486 23.6237 18.1698 23.625 18.5ZM18 22.3542C18.4926 22.354 18.9803 22.2542 19.4354 22.0603C19.8904 21.8665 20.3038 21.5824 20.652 21.2243C21.0003 20.8663 21.2764 20.4412 21.4648 19.9734C21.6532 19.5057 21.7501 19.0043 21.75 18.4981C21.7499 17.9918 21.6527 17.4905 21.4641 17.0229C21.2755 16.5552 20.9991 16.1303 20.6507 15.7724C20.3023 15.4145 19.8887 15.1306 19.4336 14.937C18.9785 14.7434 18.4907 14.6438 17.9981 14.6439C17.0033 14.6442 16.0493 15.0506 15.3461 15.7737C14.6428 16.4969 14.2479 17.4776 14.2481 18.5C14.2484 19.5224 14.6438 20.5029 15.3474 21.2257C16.051 21.9485 17.0052 22.3544 18 22.3542ZM22.5 14.4531H24.7481C24.8222 14.4534 24.8955 14.4386 24.964 14.4097C25.0324 14.3807 25.0947 14.3382 25.1471 14.2845C25.1995 14.2308 25.2411 14.167 25.2695 14.0967C25.2979 14.0264 25.3125 13.9511 25.3125 13.875V11.5644C25.3127 11.4882 25.2983 11.4126 25.27 11.3421C25.2418 11.2717 25.2002 11.2076 25.1478 11.1537C25.0953 11.0998 25.033 11.0571 24.9644 11.028C24.8958 10.9989 24.8223 10.9841 24.7481 10.9844H22.5C22.4258 10.9841 22.3523 10.9989 22.2837 11.028C22.2151 11.0571 22.1528 11.0998 22.1004 11.1537C22.0479 11.2076 22.0064 11.2717 21.9781 11.3421C21.9498 11.4126 21.9354 11.4882 21.9356 11.5644V13.875C21.9375 14.193 22.1906 14.4531 22.5 14.4531ZM18 0C13.2261 0 8.64773 1.9491 5.27208 5.41852C1.89642 8.88795 0 13.5935 0 18.5C0 23.4065 1.89642 28.1121 5.27208 31.5815C8.64773 35.0509 13.2261 37 18 37C20.3638 37 22.7044 36.5215 24.8883 35.5918C27.0722 34.6621 29.0565 33.2994 30.7279 31.5815C32.3994 29.8636 33.7252 27.8242 34.6298 25.5796C35.5344 23.3351 36 20.9295 36 18.5C36 16.0705 35.5344 13.6649 34.6298 11.4204C33.7252 9.17583 32.3994 7.13641 30.7279 5.41852C29.0565 3.70064 27.0722 2.33794 24.8883 1.40823C22.7044 0.478517 20.3638 0 18 0ZM27.375 25.9944C27.375 27.1719 26.4375 28.1354 25.2919 28.1354H10.7081C9.5625 28.1354 8.625 27.1719 8.625 25.9944V11.0056C8.625 9.82812 9.5625 8.86458 10.7081 8.86458H25.2919C26.4375 8.86458 27.375 9.82812 27.375 11.0056V25.9944Z" fill="black"/>
</svg>
