<svg width="36" height="36" viewBox="0 0 36 36" fill="none" xmlns="http://www.w3.org/2000/svg">
<path d="M18 0C13.2261 0 8.64773 1.89642 5.27208 5.27208C1.89642 8.64773 0 13.2261 0 18C0 22.7739 1.89642 27.3523 5.27208 30.7279C8.64773 34.1036 13.2261 36 18 36C22.7739 36 27.3523 34.1036 30.7279 30.7279C34.1036 27.3523 36 22.7739 36 18C36 13.2261 34.1036 8.64773 30.7279 5.27208C27.3523 1.89642 22.7739 0 18 0ZM9 9H27C27.324 9.0015 27.6308 9.0675 27.9202 9.198L18 20.7698L8.07975 9.198C8.36911 9.06785 8.68272 9.00038 9 9ZM6.75 24.75V11.25L6.7545 11.1082L13.3515 18.8055L6.8265 25.3305C6.77582 25.1412 6.75011 24.946 6.75 24.75ZM27 27H9C8.8005 27 8.607 26.9745 8.4195 26.9235L14.823 20.52L18.0023 24.228L21.1815 20.52L27.585 26.9235C27.3957 26.9742 27.2005 26.9999 27.0045 27H27ZM29.25 24.75C29.25 24.9495 29.2245 25.143 29.1735 25.3305L22.6485 18.8055L29.2455 11.1082L29.25 11.25V24.75Z" fill="black"/>
</svg>
