<svg width="36" height="36" viewBox="0 0 36 36" fill="none" xmlns="http://www.w3.org/2000/svg">
<path d="M22.0575 17.7225C21.5671 17.4066 21.0368 17.1576 20.4806 16.9819C19.8111 16.7641 19.1308 16.5807 18.4425 16.4325C18.0158 16.3343 17.5913 16.2268 17.1694 16.11C16.912 16.038 16.6631 15.9387 16.4269 15.8137C16.2159 15.7104 16.0287 15.5642 15.8775 15.3844C15.7539 15.2269 15.689 15.0314 15.6938 14.8312C15.6938 14.4787 15.8812 14.1825 16.2656 13.9237C16.6631 13.6556 17.2012 13.5206 17.8612 13.5206C18.5762 13.5206 19.0894 13.6412 19.4006 13.8825C19.7206 14.1325 19.9956 14.4837 20.2256 14.9362C20.4244 15.2887 20.6025 15.5325 20.7769 15.6862C20.9644 15.8562 21.2288 15.9419 21.57 15.9431C21.9475 15.9431 22.2631 15.8075 22.5169 15.5362C22.7578 15.2924 22.8937 14.964 22.8956 14.6212C22.8956 14.2687 22.7962 13.9031 22.6069 13.5412C22.3827 13.1381 22.0783 12.7853 21.7125 12.5044C21.2577 12.1534 20.7423 11.889 20.1919 11.7244C19.4941 11.5176 18.7689 11.419 18.0413 11.4319C17.01 11.4319 16.1006 11.5781 15.3356 11.8706C14.5613 12.1669 13.9594 12.5981 13.5469 13.1512C13.1322 13.704 12.912 14.3784 12.9206 15.0694C12.9206 15.8194 13.1212 16.4569 13.5169 16.9669C13.905 17.4694 14.4394 17.8706 15.0994 18.1613C15.7494 18.4438 16.555 18.6912 17.5162 18.9037C18.2175 19.0538 18.7875 19.2 19.2056 19.335C19.6081 19.4637 19.9363 19.6494 20.19 19.8919C20.3095 20.0086 20.4028 20.1493 20.4639 20.3048C20.525 20.4603 20.5524 20.6269 20.5444 20.7937C20.5444 21.2662 20.3213 21.6506 19.8638 21.9769C19.3931 22.3069 18.7687 22.4719 18.0075 22.4719C17.4512 22.4719 17.005 22.39 16.6687 22.2262C16.3657 22.0879 16.1006 21.8782 15.8962 21.615C15.684 21.3135 15.5066 20.989 15.3675 20.6475C15.2487 20.3398 15.0637 20.062 14.8256 19.8337C14.6015 19.6391 14.3123 19.5361 14.0156 19.545C13.6587 19.5346 13.3121 19.6661 13.0519 19.9106C12.9293 20.0257 12.8319 20.1649 12.7658 20.3195C12.6996 20.4741 12.6662 20.6406 12.6675 20.8088C12.6675 21.3619 12.8662 21.9412 13.2581 22.5187C13.6481 23.0987 14.1544 23.5612 14.7769 23.9062C15.6431 24.3787 16.7531 24.6169 18.0769 24.6169C19.1794 24.6169 20.1469 24.4406 20.9569 24.0975C21.7725 23.7487 22.4025 23.2556 22.8281 22.6369C23.2555 22.0143 23.4807 21.2751 23.4731 20.52C23.4731 19.8675 23.3475 19.305 23.0981 18.8494C22.8481 18.3946 22.4909 18.0078 22.0575 17.7225ZM18 0C8.05875 0 0 8.05875 0 18C0 27.9412 8.05875 36 18 36C27.9412 36 36 27.9412 36 18C36 8.05875 27.9412 0 18 0ZM22.3144 28.0781C21.4012 28.0781 20.5406 27.8438 19.7869 27.4256C19.2309 27.5335 18.6658 27.5875 18.0994 27.5869C13.0125 27.5869 8.88562 23.3381 8.88562 18.105C8.88687 17.4487 8.94937 16.8125 9.07312 16.1962C8.5895 15.3508 8.33607 14.3933 8.33812 13.4194C8.33812 10.3837 10.7306 7.91812 13.6837 7.91812C14.7281 7.91812 15.7012 8.22937 16.5262 8.76375C17.0387 8.67125 17.5631 8.625 18.0994 8.625C23.19 8.625 27.315 12.87 27.315 18.1069C27.3137 18.8044 27.2431 19.4819 27.1031 20.1394C27.4575 20.8762 27.6581 21.7031 27.6581 22.5825C27.6562 25.6162 25.2656 28.0781 22.3144 28.0781Z" fill="black"/>
</svg>
