<svg width="36" height="37" viewBox="0 0 36 37" fill="none" xmlns="http://www.w3.org/2000/svg">
<path d="M21.0056 18.1869L16.7944 16.2219C16.4269 16.0512 16.125 16.2425 16.125 16.6494V20.3506C16.125 20.7575 16.4269 20.9487 16.7944 20.7781L21.0037 18.8131C21.3731 18.6406 21.3731 18.3594 21.0056 18.1869ZM18 0.5C8.05875 0.5 0 8.55875 0 18.5C0 28.4412 8.05875 36.5 18 36.5C27.9412 36.5 36 28.4412 36 18.5C36 8.55875 27.9412 0.5 18 0.5ZM18 25.8125C8.78625 25.8125 8.625 24.9819 8.625 18.5C8.625 12.0181 8.78625 11.1875 18 11.1875C27.2137 11.1875 27.375 12.0181 27.375 18.5C27.375 24.9819 27.2137 25.8125 18 25.8125Z" fill="black"/>
</svg>
